<svg xmlns="http://www.w3.org/2000/svg" width="76.804" height="76.231" viewBox="0 0 76.804 76.231">
  <g id="Groupe_91" data-name="Groupe 91" transform="translate(0 0)">
    <path id="Tracé_22" data-name="Tracé 22" d="M359.782,779.629c.373-2.554,1.819-4.606,3.129-6.725q5.082-8.223,10.144-16.457c.129-.209.251-.423.465-.784-1.318.215-2.5.4-3.684.6-1.8.3-3.593.617-5.389.925a2.994,2.994,0,1,1-1.042-5.894c2.115-.373,4.234-.719,6.351-1.079,1.428-.243,2.848-.54,4.283-.727,5.2-.677,9.4,2.535,10.328,7.842q.874,5.018,1.785,10.029a3.078,3.078,0,0,1-1.135,3.338,2.992,2.992,0,0,1-4.7-1.913q-.817-4.572-1.637-9.142c-.03-.165-.086-.324-.156-.58-.18.258-.312.429-.425.613q-5.821,9.439-11.634,18.883a3.838,3.838,0,0,0,2.464,5.953,7.072,7.072,0,0,0,1.417.084q9.9.008,19.8.007a2.99,2.99,0,0,1,3.106,3.585,2.907,2.907,0,0,1-2.791,2.388c-7.125.014-14.25.072-21.374-.027a9.768,9.768,0,0,1-9.153-8.1c-.036-.194-.1-.382-.152-.572Z" transform="translate(-359.782 -726.492)" fill="#c5f267"/>
    <path id="Tracé_23" data-name="Tracé 23" d="M987.551,956.192a45.87,45.87,0,0,0-9.924,1.677,26.747,26.747,0,0,0-10.676,5.549c-2.3,2.068-4.271,4.4-4.814,7.565a22.162,22.162,0,0,0-.034,3.7l.371.253a3.338,3.338,0,0,1,.44-.789,59.328,59.328,0,0,1,11.6-9.074,3.028,3.028,0,0,1,4.334.816,2.984,2.984,0,0,1-1.216,4.289,58.245,58.245,0,0,0-19.086,18.842c-.244.377-.476.764-.74,1.127a2.967,2.967,0,0,1-4.119.769,2.92,2.92,0,0,1-.86-4.036c1.419-2.144,2.921-4.234,4.423-6.322a1.093,1.093,0,0,0,.176-1.255c-2.852-6.715-1.426-12.686,3.248-18.05a30.044,30.044,0,0,1,13.493-8.583,49.842,49.842,0,0,1,16.209-2.543,3,3,0,0,1,3.3,3.374,47.218,47.218,0,0,1-4.537,20.9,24.86,24.86,0,0,1-11,11.692,21.06,21.06,0,0,1-4.521,1.509,2.963,2.963,0,0,1-1.436-5.726c6.109-1.411,9.516-5.756,12.012-11.025a38.983,38.983,0,0,0,3.381-14.35A2.5,2.5,0,0,0,987.551,956.192Z" transform="translate(-916.877 -915.205)" fill="#c5f267"/>
    <path id="Tracé_24" data-name="Tracé 24" d="M754.91,391.891c-.156-.271-.254-.464-.372-.643q-5.384-8.208-10.775-16.412a3.917,3.917,0,0,0-5.327-1.514,5.115,5.115,0,0,0-1.63,1.6c-2.242,3.4-4.42,6.838-6.628,10.259a2.964,2.964,0,0,1-3.24,1.49,2.928,2.928,0,0,1-1.99-4.375c2.425-3.874,4.8-7.794,7.46-11.5a9.838,9.838,0,0,1,16.077.374c3.412,5.019,6.68,10.136,10.013,15.209.558.85,1.122,1.7,1.77,2.676.376-2.046.721-3.932,1.069-5.817.24-1.3.45-2.609.736-3.9a2.971,2.971,0,0,1,5.771-.083,3.322,3.322,0,0,1,.057,1.333c-.594,3.368-1.177,6.739-1.848,10.092-1.1,5.5-5.652,8.436-11.2,7.322-3.059-.614-6.125-1.194-9.188-1.783a3.065,3.065,0,0,1-2.838-2.893,2.99,2.99,0,0,1,3.688-3.055c1.622.289,3.235.626,4.852.941C752.513,391.428,753.662,391.65,754.91,391.891Z" transform="translate(-702.682 -366.803)" fill="#c5f267"/>
  </g>
</svg>
