<svg xmlns="http://www.w3.org/2000/svg" width="72.993" height="73.079" viewBox="0 0 72.993 73.079">
  <path id="Tracé_29" data-name="Tracé 29" d="M317.636,276.079c1.362.184,2.731.326,4.085.559a35.659,35.659,0,0,1,19.71,10.271,34.765,34.765,0,0,1,10.237,21.009c1.358,12.072-2.165,22.55-10.953,31.089a35.344,35.344,0,0,1-17.581,9.334,36.486,36.486,0,0,1-19.679-1.223,2.854,2.854,0,0,1-1.89-3.637,2.8,2.8,0,0,1,3.624-1.777,33.028,33.028,0,0,0,11.573,1.715,30.8,30.8,0,0,0,7.6-60.268c-12-3.457-22.623-.544-31.38,8.467a29.36,29.36,0,0,0-7.98,16.48,28.868,28.868,0,0,0,1.673,15.344A7.145,7.145,0,0,0,298,326.012c.833-.736,1.545-1.608,2.289-2.392a30.556,30.556,0,0,1-1.471-3.47,13.754,13.754,0,0,1,3.466-14.211c2.535-2.643,5.162-5.2,7.763-7.778a2.848,2.848,0,0,1,4.35.024c.814.8,1.605,1.621,2.558,2.586a4.811,4.811,0,0,1,.475-.693c2.416-2.428,4.829-4.86,7.268-7.265a2.858,2.858,0,0,1,4.748.749,2.9,2.9,0,0,1-.756,3.324c-1.724,1.741-3.463,3.466-5.2,5.2l-2.553,2.553,2.65,2.639a3.7,3.7,0,0,1,.418-.621q3.571-3.594,7.16-7.17a2.8,2.8,0,0,1,3.069-.768,2.709,2.709,0,0,1,1.888,2.375,2.958,2.958,0,0,1-1.028,2.544q-3.514,3.5-7.017,7.011c-.185.184-.4.334-.69.568.856.842,1.634,1.6,2.4,2.361,1.546,1.547,1.548,3.112.006,4.657-2.42,2.424-4.887,4.8-7.257,7.276a14.2,14.2,0,0,1-17.759,2.355c-.079-.049-.165-.086-.285-.147-.948.9-1.872,1.813-2.843,2.677a12.926,12.926,0,0,1-20.8-6.158,36.391,36.391,0,0,1-1.755-14.693,36.022,36.022,0,0,1,9.285-21.383A35.424,35.424,0,0,1,306.621,277.2c1.975-.484,4.023-.67,6.038-.995.233-.038.464-.085.7-.128Zm-5.34,28.2c-2.209,2.133-4.524,4.161-6.586,6.42a7.477,7.477,0,0,0-1.681,6.878,7.956,7.956,0,0,0,5.751,6.306,8.064,8.064,0,0,0,8.4-2.126c1.878-1.821,3.7-3.694,5.552-5.547a2.2,2.2,0,0,0,.212-.278Z" transform="translate(-278.958 -276.079)" fill="#c5f267"/>
</svg>
